<?xml version="1.0" encoding="UTF-8"?><svg id="a" xmlns="http://www.w3.org/2000/svg" viewBox="0 0 107.547 111.35"><defs><style>.b{fill:#63656a;}</style></defs><path class="b" d="M92.87878,23.43769c-8.0924-8.53136-21.03897-10.26409-31.09-4.161v23.367l31.09-19.206Z"/><path class="b" d="M45.28378,19.27669c-10.05103-6.10309-22.9976-4.37036-31.09,4.161l31.09,19.206V19.27669Z"/><path class="b" d="M25.61371,75.11075c6.0431,5.89799,12.62929,11.21255,19.671,15.873v-28.026l-19.671,12.153Z"/><path class="b" d="M37.14369,44.35667L10.87669,28.13067c-.6555,1.23846-1.19835,2.53334-1.622,3.869l20.008,12.355,7.881,.002Z"/><path class="b" d="M37.14473,61.05377l-15.681,9.688c.84,.946,1.706,1.874,2.587,2.786l20.188-12.474h-7.094Z"/><path class="b" d="M70.71873,44.54569l25.747-15.9c-.6184-1.24104-1.34947-2.42267-2.184-3.53l-31.445,19.43h7.882Z"/><path class="b" d="M69.92969,61.05377l15.683,9.688c.84-.946,1.65166-1.906,2.435-2.88l-11.021-6.808h-7.097Z"/><path class="b" d="M98.70873,44.54573c.52866-3.53179,.40563-7.13056-.363-10.618l-17.193,10.618h17.556Z"/><path class="b" d="M89.38776,66.14177c1.23421-1.63193,2.37826-3.33013,3.427-5.087h-11.664l8.237,5.087Z"/><path class="b" d="M8.73073,33.92773c-.76632,3.48775-.889,7.08616-.362,10.618H25.92673l-17.196-10.618Z"/><path class="b" d="M14.26372,61.05377c1.04876,1.7564,2.19211,3.45457,3.425,5.087l8.237-5.087H14.26372Z"/><path class="b" d="M61.79278,90.98267c7.04285-4.65973,13.62978-9.97433,19.673-15.873l-19.673-12.155v28.028Z"/><path class="b" d="M58.31369,48.02669V21.93269c-1.90078,1.76905-3.51177,3.8258-4.774,6.095-1.26123-2.27041-2.87308-4.32741-4.776-6.095v26.094H9.01369c.7174,2.99195,1.71721,5.90904,2.986,8.712,.124,.279,.267,.559,.4,.84H48.76369v35.61c1.51218,.98131,3.11082,1.82247,4.776,2.513,1.66359-.69018,3.26142-1.52925,4.774-2.507V57.57669h36.362c.134-.281,.277-.559,.4-.84,1.27053-2.80158,2.2704-5.71817,2.986-8.71H58.31369Z"/></svg>