<?xml version="1.0" encoding="UTF-8"?><svg id="a" xmlns="http://www.w3.org/2000/svg" viewBox="0 0 107.547 111.35"><defs><style>.b{fill:#63656a;}</style></defs><path class="b" d="M72.94681,32.07237c-.02051,0-.04102,.00049-.06055,.00098l-19.57129,.00049c-.49268,.01562-.95117,.22314-1.28955,.58447-.33838,.36084-.51562,.83203-.5,1.32666l.00049,.15381c.03271,1.01855,.85938,1.80029,1.91113,1.78955l14.81836-.00049L21.40188,82.78135v-14.94043c-.03271-1.01953-.875-1.84277-1.91064-1.78906h-.1499c-.49707,.01562-.95557,.22363-1.29395,.58398-.33838,.36133-.51562,.83203-.5,1.32617l.00049,19.57129c.01562,.49316,.22314,.95215,.58447,1.29004,.36133,.33887,.83594,.5293,1.32666,.5h19.43213c1.0625-.00098,1.92725-.86523,1.92725-1.92773-.00049-1.0625-.86475-1.92676-1.92725-1.92676h-14.79834l46.8501-46.85011v14.79834c0,1.0625,.86523,1.92725,1.92773,1.92725s1.92676-.86475,1.92676-1.92725v-19.55957c-.0332-.99316-.85742-1.78516-1.85059-1.78516h.00002Z"/><path class="b" d="M99.53958,99.93761H7.93997c-.55225,0-1-.44727-1-1V11.92199c0-.55225,.44775-1,1-1h57.24707c.24023,0,.47266,.08691,.65527,.24414l34.35254,29.76807c.21875,.18994,.34473,.46582,.34473,.75586v57.24755c0,.55273-.44727,1-1,.99999Zm-90.59961-2H98.53958V42.1466L64.81399,12.92199H8.93997V97.93761Z"/></svg>