<svg xmlns="http://www.w3.org/2000/svg" xmlns:xlink="http://www.w3.org/1999/xlink" version="1.1" id="a" x="0px" y="0px" viewBox="0 0 107.5 111.3" style="enable-background:new 0 0 107.5 111.3;" xml:space="preserve"> <style type="text/css"> .st0{fill:#6E7075;} </style> <g> <g> <path class="st0" d="M12.7,38.4l0,1.5l-1.1,0l0-2.3l0.4-0.9l5.7,2.4l-0.5,1.1L12.7,38.4z"></path> <path class="st0" d="M17.5,36.5c0.3-0.2,0.6-0.5,0.9-0.9c0.4-0.6,0.4-1.3-0.2-1.6c-0.3-0.2-0.6-0.2-0.9,0 c-0.2,0.2-0.4,0.5-0.7,0.9l-0.4,0.7l-2.8-1.7l2-3.3l0.8,0.8l-1.2,2l1,0.6l0.1-0.2c0.2-0.4,0.5-0.7,0.8-0.9c0.7-0.5,1.4-0.4,2-0.1 c1,0.6,1.4,1.7,0.5,3.3c-0.3,0.6-0.7,1-1.2,1.3L17.5,36.5z"></path> <path class="st0" d="M22.6,27.3l-4.1-1l0.9-1l2.8,0.8l0,0l-1-2.8l0.9-1l1.3,4.1l1.8,1.6L24.4,29L22.6,27.3z"></path> <path class="st0" d="M24,20.8l2.8-2.2l0.4,1l-1.5,1.2l0.9,1.1l1.5-1.2l0.7,0.8l-1.5,1.2l0.9,1.2l1.8-1.4l0.7,0.8l-2.7,2.2L24,20.8 z"></path> <path class="st0" d="M30.6,16.1l0.9-0.5l5.2,4.1l-1.2,0.7l-1.3-1l-1.8,1l0.3,1.6l-1.1,0.7L30.6,16.1z M33.4,18.6l-0.8-0.7 c-0.4-0.3-0.5-0.5-0.7-0.6l0,0c0.1,0.2,0.1,0.5,0.2,0.9l0.2,1.1L33.4,18.6z"></path> <path class="st0" d="M35.9,13.3l1.7-0.7c0.5-0.2,0.9-0.3,1.3-0.2c0.8,0,1.2,0.5,1.5,1.1c0.3,0.7,0,1.4-0.6,1.9l0,0 c0.2,0,0.6,0.2,1.1,0.7l1.6,1.3L41,17.9l-1.3-1.1c-0.5-0.4-0.8-0.6-0.9-0.6l-0.4,0.2l0.8,2.2L38,19L35.9,13.3z M38.5,15.3 c0.3-0.1,0.4-0.2,0.5-0.3c0.2-0.2,0.2-0.5,0.1-0.8c-0.1-0.3-0.4-0.5-0.7-0.5c-0.2,0-0.3,0-0.6,0.1l-0.5,0.2l0.6,1.6L38.5,15.3z"></path> <path class="st0" d="M51.9,15.2c-0.6,0.4-1.4,0.7-2.2,0.8c-2,0.3-3.4-0.9-3.6-2.6c-0.2-1.8,0.9-3.4,3-3.6c0.7-0.1,1.3,0,1.8,0.1 l0.1,1.2c-0.5-0.2-1.1-0.3-1.8-0.2c-1.4,0.2-2,1.1-1.9,2.4c0.2,1.2,1,1.9,2.2,1.8c0.4,0,0.7-0.2,0.9-0.3l-0.2-1.9l1.3-0.2 L51.9,15.2z"></path> <path class="st0" d="M54.3,14.5c-0.2-0.3-0.2-0.8-0.2-1.3l0.2-3.8l1.3,0.1l-0.2,3.7c0,0.3,0,0.6,0.1,0.8c0.2,0.4,0.6,0.6,1.2,0.7 c0.6,0,1-0.2,1.2-0.6C58,14,58,13.7,58,13.4l0.2-3.7l1.3,0.1l-0.2,3.8c0,0.5-0.1,0.9-0.3,1.2c-0.4,0.8-1.3,1.1-2.4,1 C55.4,15.7,54.6,15.3,54.3,14.5z"></path> <path class="st0" d="M64.3,10.5l1,0.2l1.1,6.5L65,17l-0.2-1.6l-2-0.5l-0.9,1.3L60.6,16L64.3,10.5z M64.6,14.3l-0.1-1.1 c0-0.5-0.1-0.7-0.1-0.9l0,0c-0.1,0.2-0.2,0.4-0.5,0.8L63.3,14L64.6,14.3z"></path> <path class="st0" d="M70,12.1l1.7,0.7c0.5,0.2,0.9,0.4,1.1,0.7c0.5,0.5,0.6,1.2,0.3,1.8c-0.3,0.7-1,1.1-1.7,1l0,0 c0.1,0.2,0.3,0.6,0.3,1.2l0.3,2L70.7,19l-0.2-1.7c-0.1-0.6-0.2-0.9-0.3-1l-0.4-0.2l-0.9,2.1l-1.2-0.5L70,12.1z M70.6,15.4 c0.3,0.1,0.4,0.1,0.6,0.1c0.3,0,0.5-0.2,0.7-0.5c0.1-0.3,0.1-0.6-0.1-0.8c-0.1-0.1-0.2-0.2-0.5-0.3l-0.4-0.2l-0.7,1.6L70.6,15.4z"></path> <path class="st0" d="M78.1,15.9l0.9,0.5l-1,6.5l-1.2-0.7l0.3-1.6l-1.8-1.1l-1.3,1L72.9,20L78.1,15.9z M77.2,19.7l0.2-1.1 c0.1-0.5,0.2-0.7,0.2-0.9l0,0c-0.2,0.2-0.4,0.3-0.7,0.6L76.1,19L77.2,19.7z"></path> <path class="st0" d="M82.4,26.8l0.3-4.2c0-0.4,0.1-0.7,0.1-1l0,0c-0.1,0.2-0.4,0.5-0.6,0.7l-2.2,2.5l-1-0.8l4-4.6l1,0.8l-0.3,4 c0,0.4-0.1,0.7-0.1,1l0,0c0.2-0.3,0.5-0.6,0.7-0.8l2-2.3l1,0.8l-4,4.6L82.4,26.8z"></path> <path class="st0" d="M89.3,26.9l-1.1-1.4l0.8-0.7l3.2,3.9l-1,0.4l-1-1.2L86.3,31l-0.8-1L89.3,26.9z"></path> <path class="st0" d="M93.5,30.6l1.8,3l-1.1,0.3l-1-1.6L92,33l1,1.7l-0.9,0.6l-1-1.7l-1.3,0.8l1.2,1.9l-0.9,0.6l-1.8-3L93.5,30.6z"></path> <path class="st0" d="M96.6,36.1l1.4,3.2l-1.1,0.1l-0.8-1.8l-1.3,0.6l0.8,1.8l-1,0.4l-0.8-1.8l-1.4,0.6l0.9,2.1l-1,0.4L91,38.5 L96.6,36.1z"></path> </g> </g> <g> <g> <path class="st0" d="M13.8,56l0.1,1.6c0,0.6,0,1-0.2,1.4c-0.3,0.7-0.9,1.1-1.7,1.1c-0.7,0-1.5-0.2-1.9-1.1 c-0.1-0.3-0.2-0.8-0.3-1.3l0-0.2l-2,0.1l-0.1-1.3L13.8,56z M10.8,57.7c0,0.3,0.1,0.5,0.1,0.7c0.2,0.3,0.5,0.5,0.9,0.4 c0.4,0,0.7-0.2,0.8-0.5c0.1-0.2,0.1-0.4,0.1-0.7l0-0.3l-2,0.1L10.8,57.7z"></path> <path class="st0" d="M14.2,61.8l0.3,1.8c0.1,0.5,0.1,1,0,1.3c-0.2,0.7-0.7,1.1-1.3,1.2c-0.8,0.2-1.4-0.2-1.8-0.9l0,0 c-0.1,0.2-0.3,0.5-0.8,1L9,67.6l-0.3-1.4l1.3-1.1c0.5-0.4,0.7-0.7,0.7-0.8l-0.1-0.5l-2.3,0.4L8.2,63L14.2,61.8z M11.8,64.1 c0.1,0.3,0.1,0.4,0.2,0.6c0.2,0.2,0.5,0.3,0.8,0.3c0.3-0.1,0.6-0.3,0.6-0.5c0.1-0.2,0.1-0.3,0-0.6l-0.1-0.5l-1.7,0.3L11.8,64.1z"></path> <path class="st0" d="M12.5,68.8c1.7-0.7,3.4,0.1,4,1.8c0.7,1.7-0.1,3.4-1.8,4c-1.7,0.7-3.4-0.1-4-1.8C10,71.1,10.7,69.4,12.5,68.8 z M14.2,73.3c1.2-0.5,1.7-1.4,1.3-2.4c-0.4-1-1.3-1.4-2.6-0.9c-1.3,0.5-1.7,1.4-1.3,2.4C12,73.4,12.9,73.8,14.2,73.3z"></path> <path class="st0" d="M18.4,75.1l1.1,1.8c1.1,1.8,0.7,3.5-0.8,4.4c-1.6,1-3.4,0.4-4.5-1.4l-1-1.7L18.4,75.1z M15.1,79.4 c0.8,1.3,1.9,1.3,2.8,0.8c1.1-0.6,1.3-1.6,0.6-2.9l-0.3-0.6l-3.4,2.1L15.1,79.4z"></path> <path class="st0" d="M18.6,84.6c0.1-0.4,0.4-0.7,0.8-1l2.9-2.5l0.8,1l-2.8,2.5c-0.2,0.2-0.4,0.4-0.5,0.7c-0.2,0.4,0,0.9,0.3,1.3 c0.4,0.4,0.8,0.6,1.2,0.5c0.2-0.1,0.5-0.2,0.7-0.4l2.8-2.5l0.8,1l-2.9,2.5c-0.4,0.3-0.8,0.5-1.1,0.6c-0.8,0.2-1.7-0.2-2.4-1 C18.6,86.3,18.3,85.4,18.6,84.6z"></path> <path class="st0" d="M27.4,93.9c-0.8-0.1-1.4-0.5-1.9-0.9c-1.6-1.3-1.6-3-0.5-4.4c1.1-1.4,3-1.7,4.6-0.4c0.5,0.4,0.9,0.9,1.1,1.3 L30,90.4c-0.2-0.5-0.5-1-1-1.3c-1-0.8-2.1-0.5-2.9,0.4c-0.8,0.9-0.7,2.1,0.2,2.8c0.5,0.4,1,0.5,1.5,0.6L27.4,93.9z"></path> <path class="st0" d="M32.9,91.9L31.3,91l0.5-0.9l4.3,2.5l-0.8,0.8L34,92.5l-2.5,4.3l-1.1-0.6L32.9,91.9z"></path> <path class="st0" d="M39.9,100.7c-1.2-0.4-1.8-1.3-1.5-2.3c0.2-0.8,0.9-1.2,1.7-1.3c-0.2-0.5-0.4-0.9-0.3-1.5 c0.2-0.7,1.1-1.2,2.2-0.8c1.1,0.3,1.6,1.1,1.4,1.9c-0.2,0.7-0.9,1-1.6,1.1c0.2,0.4,0.5,1,0.8,1.5c0.4-0.2,0.8-0.5,1.1-1l0.9,0.6 c-0.5,0.7-0.9,1.1-1.4,1.4c0.2,0.3,0.4,0.5,0.8,0.6c0.1,0,0.2,0,0.3,0l-0.1,0.9c-0.2,0-0.5,0-0.7-0.1c-0.5-0.2-1-0.5-1.4-1.1 C41.4,101,40.7,101,39.9,100.7z M41.5,99.8c-0.3-0.5-0.7-1.2-1-1.8c-0.4,0.1-0.7,0.3-0.9,0.7c-0.1,0.5,0.2,1,0.7,1.1 C40.8,99.9,41.1,99.9,41.5,99.8z M42.2,96.4c0.1-0.3,0-0.6-0.4-0.7c-0.4-0.1-0.6,0.1-0.7,0.3c-0.1,0.2,0,0.5,0.2,1 C41.8,96.9,42.1,96.6,42.2,96.4z"></path> <path class="st0" d="M50.3,96.6l1.3,0.1l-0.5,6.1l-1.3-0.1L50.3,96.6z"></path> <path class="st0" d="M58.4,102.8l-2.7-3.2c-0.2-0.3-0.4-0.6-0.7-0.8l0,0c0,0.2,0.1,0.6,0.1,0.9l0.2,3.3L54,103l-0.3-6.1l1.3-0.1 l2.6,3.1c0.3,0.3,0.5,0.6,0.7,0.8l0,0c0-0.3-0.1-0.7-0.1-1l-0.2-3l1.3-0.1l0.3,6.1L58.4,102.8z"></path> <path class="st0" d="M62.5,100.8c0.4,0.2,0.9,0.3,1.5,0.2c0.5-0.1,0.9-0.4,0.8-0.8c-0.2-1.1-2.8-0.4-3.2-2.2 c-0.2-0.9,0.3-1.9,1.6-2.1c0.6-0.1,1.2-0.1,1.6,0l0.2,1.1c-0.6-0.1-1.1-0.2-1.6-0.1c-0.4,0.1-0.7,0.3-0.6,0.7 c0.2,1,2.7,0.3,3.2,2.2c0.2,1.1-0.6,2-1.8,2.2c-0.7,0.2-1.4,0.1-2-0.1L62.5,100.8z"></path> <path class="st0" d="M68.8,95.4L67.1,96l-0.4-1l4.7-1.8l0.1,1.1l-1.5,0.6l1.8,4.7l-1.2,0.5L68.8,95.4z"></path> <path class="st0" d="M74.1,91.8l0.9-0.5l5.2,4.1L79,96l-1.3-1l-1.8,1l0.2,1.6L75,98.3L74.1,91.8z M76.9,94.3l-0.8-0.7 c-0.3-0.3-0.5-0.5-0.7-0.7l0,0c0.1,0.2,0.1,0.5,0.2,0.9l0.2,1.1L76.9,94.3z"></path> <path class="st0" d="M78.2,89.1l1-0.8l3.1,4L84,91l0.7,0.8L82,94L78.2,89.1z"></path> <path class="st0" d="M82.1,86l0.9-0.9l3.6,3.6l1.5-1.5l0.8,0.8l-2.4,2.4L82.1,86z"></path> <path class="st0" d="M86.5,81.1l0.6-0.8l6.4,1.7l-0.8,1.1l-1.5-0.4l-1.3,1.7l0.9,1.4l-0.8,1L86.5,81.1z M90.1,82.3l-1-0.3 c-0.4-0.1-0.7-0.2-0.9-0.3l0,0c0.1,0.2,0.3,0.4,0.5,0.8l0.6,0.9L90.1,82.3z"></path> <path class="st0" d="M90.9,76.5L90,78.1l-0.9-0.5l2.4-4.4l0.8,0.8l-0.8,1.4l4.4,2.4l-0.6,1.1L90.9,76.5z"></path> <path class="st0" d="M91.9,71.9l0.5-1.2l5.7,2.3l-0.5,1.2L91.9,71.9z"></path> <path class="st0" d="M96.1,69.7c-1.8-0.4-2.7-2-2.3-3.8c0.4-1.8,2-2.7,3.8-2.3c1.8,0.4,2.7,2,2.3,3.8 C99.5,69.2,97.9,70.2,96.1,69.7z M97.3,65c-1.3-0.3-2.2,0.2-2.4,1.2c-0.3,1,0.3,1.9,1.6,2.2c1.3,0.3,2.2-0.2,2.4-1.2 C99.1,66.2,98.6,65.3,97.3,65z"></path> <path class="st0" d="M101.2,57.1l-3.5,2.4c-0.3,0.2-0.6,0.4-0.9,0.6l0,0c0.2,0,0.6,0,0.9,0l3.3,0.2l-0.1,1.3l-6.1-0.3l0.1-1.3 l3.3-2.3c0.3-0.2,0.6-0.4,0.9-0.6l0,0c-0.3,0-0.7,0-1,0l-3-0.2l0.1-1.3l6.1,0.3L101.2,57.1z"></path> </g> <path class="st0" d="M100,47.8c0.1,1.6-1.1,3-2.7,3.1c-1.6,0.1-3-1.1-3.1-2.7c-0.1-1.6,1.1-3,2.7-3.1C98.5,44.9,99.9,46.1,100,47.8 "></path> <path class="st0" d="M14.7,47.8c0.1,1.6-1.1,3-2.7,3.1c-1.6,0.1-3-1.1-3.1-2.7c-0.1-1.6,1.1-3,2.7-3.1 C13.2,44.9,14.6,46.1,14.7,47.8"></path> <g> <path class="st0" d="M51.2,74.4H34v-2.7h1.3c1.2,0,2-0.1,2.5-0.4c0.5-0.3,0.8-0.7,1-1.1c0.1-0.5,0.2-1.3,0.2-2.4V46 c0-1.1-0.1-1.9-0.3-2.4c-0.2-0.5-0.6-0.9-1.2-1.1c-0.6-0.2-1.6-0.3-3-0.3h-1v-2.6c3.2-0.4,5.4-0.8,6.7-1.2 c1.3-0.4,2.5-0.9,3.5-1.7h2.6v31.5c0,1.3,0.2,2.2,0.7,2.7c0.4,0.5,1.3,0.8,2.7,0.8h1.6V74.4z"></path> <path class="st0" d="M78.1,62c0,2.2-0.6,4.3-1.8,6.4c-1.2,2.1-2.9,3.7-5.2,5c-2.3,1.3-5,1.9-8.2,1.9c-2,0-3.6-0.3-5-0.8 c-1.4-0.5-2.4-1.2-3.1-2.1c-0.7-0.9-1-1.7-1-2.6c0-0.9,0.3-1.7,0.9-2.2c0.6-0.5,1.2-0.8,1.9-0.8c0.7,0,1.2,0.2,1.5,0.5 c0.3,0.3,0.7,0.8,1.1,1.6c0.8,1.4,1.6,2.4,2.5,3c0.8,0.6,1.8,0.8,2.9,0.8c1.8,0,3.2-0.5,4.1-1.6c0.9-1.1,1.4-2.2,1.7-3.5 c0.2-1.3,0.3-2.7,0.3-4.3c0-3.4-0.4-6-1.2-7.9c-0.8-1.9-2.3-2.8-4.4-2.8c-0.8,0-1.7,0.3-2.6,0.8c-0.9,0.5-1.7,1.6-2.3,3.1h-3 l0.5-18.7h17.2l-1.2,2.5c-0.5,1.1-0.9,1.7-1.2,1.9c-0.3,0.2-0.9,0.3-1.6,0.3H60l-0.2,10c0.8-0.6,1.4-1.1,1.9-1.4 c0.5-0.3,1.2-0.6,2-0.9c0.8-0.2,1.8-0.4,2.9-0.4c1.7,0,3.3,0.4,4.8,1.1c1.5,0.7,2.7,1.6,3.7,2.8c1,1.2,1.7,2.5,2.3,3.9 C77.8,58.9,78.1,60.4,78.1,62z"></path> </g> </g> </svg>