<?xml version="1.0" encoding="UTF-8"?><svg id="a" xmlns="http://www.w3.org/2000/svg" viewBox="0 0 107.547 111.35"><defs><style>.b{fill:#63656a;}</style></defs><path class="b" d="M70.35204,69.34441c5.06859-.05313,9.13442-4.20512,9.08128-9.2737-.042-4.00653-2.67819-7.52277-6.51228-8.68629-.35498-1.97212-1.51424-3.70774-3.2-4.791,.3763-1.08828,.56927-2.2315,.571-3.383,.03829-4.89772-3.41428-9.12942-8.22-10.075-1.40779-4.60499-6.28211-7.19683-10.8871-5.78904-2.76492,.84526-4.931,3.00616-5.7829,5.76904-4.83753,.93866-8.33254,5.17225-8.338,10.1,.00167,1.17317,.20183,2.33761,.592,3.444-1.63756,1.08734-2.76074,2.79559-3.11,4.73-4.84777,1.48072-7.57731,6.61098-6.09658,11.45875,1.16706,3.82088,4.67173,6.44789,8.66658,6.49625,1.05799-.00055,2.10753-.18845,3.1-.555v6.942h-5.24c-.78065,.02073-1.3967,.67038-1.37597,1.45103,.01995,.7515,.62446,1.35601,1.37597,1.37597h37.51601c.78065-.02073,1.3967-.67038,1.37597-1.45103-.01996-.7515-.62447-1.35601-1.37597-1.37597h-5.24v-6.94099c.99259,.36597,2.04208,.55352,3.1,.554m1.053-15.415c3.44866,.61856,5.74291,3.9157,5.12434,7.36436-.53783,2.99855-3.13111,5.19147-6.17735,5.22364-1.08868,.00032-2.15811-.28705-3.1-.833v-3.076l3.876-1.951c.69583-.3532,.97628-1.2017,.628-1.9-.34235-.69328-1.1819-.97775-1.87517-.6354-.00095,.00047-.00189,.00093-.00283,.0014l-2.62901,1.321v-6.7c0-.7732-.6268-1.4-1.4-1.4s-1.4,.6268-1.4,1.4v12.97c-.92594,.52097-1.97056,.79444-3.033,.794-3.50352-.03511-6.31522-2.90373-6.28011-6.40725,.03033-3.02666,2.19463-5.61034,5.16911-6.17075,.65535-.12077,1.13667-.68384,1.154-1.35,.06056-2.42432,2.07497-4.34053,4.4993-4.27996,2.33526,.05834,4.21604,1.93484,4.2797,4.26997,.01816,.67038,.50629,1.23506,1.167,1.35m-31.539-10.71c.00135-3.84981,2.93791-7.06346,6.772-7.411,.6306-.05337,1.14769-.52174,1.263-1.144,.58733-3.22195,3.67537-5.35774,6.89732-4.77041,2.43043,.44304,4.33156,2.34645,4.77168,4.77741,.11343,.61631,.62132,1.08299,1.245,1.144,4.08318,.41867,7.05384,4.06813,6.63518,8.1513-.05624,.54852-.17336,1.08908-.34917,1.6117-.41336-.07285-.83227-.10965-1.252-.11-3.49274-.00539-6.48132,2.50642-7.077,5.948-1.36485,.4178-2.61102,1.15364-3.636,2.147v-6.646l4.121-1.794c.71227-.31378,1.03884-1.14273,.732-1.858-.30278-.71145-1.12498-1.04274-1.83643-.73996-.00153,.00065-.00305,.0013-.00458,.00196l-3.011,1.311v-6.6c0-.7732-.6268-1.4-1.4-1.4s-1.4,.6268-1.4,1.4v3.761l-2.912-1.353c-.70282-.32231-1.53385-.01385-1.85616,.68896-.00062,.00135-.00123,.00269-.00184,.00404-.32334,.70766-.017,1.54375,.687,1.875l4.084,1.9v9.451c-1.02483-.99379-2.27103-1.72998-3.636-2.148-.59606-3.44135-3.58441-5.95297-7.077-5.948-.45607,.0006-.91108,.04413-1.359,.13-.26013-.76625-.39355-1.5698-.395-2.379m-2.75,23.307c-3.5035-.03699-6.31366-2.90713-6.27666-6.41063,.03217-3.04625,2.2251-5.63955,5.22366-6.17737,.6605-.1153,1.14846-.67977,1.167-1.35,.06609-2.42418,2.08485-4.33579,4.50903-4.26971,2.33512,.06366,4.21162,1.94444,4.26997,4.27971,.01732,.66616,.49865,1.22923,1.154,1.35,3.44312,.64869,5.70846,3.96575,5.05977,7.40887-.5604,2.9745-3.14409,5.13881-6.17077,5.16913-1.06245,.00049-2.10707-.27298-3.033-.794v-10.3c.00055-.7732-.62581-1.40044-1.39901-1.40099s-1.40044,.62581-1.40099,1.39901v4.03099l-2.63199-1.32501c-.6925-.34391-1.53268-.06133-1.8766,.63117-.00047,.00094-.00093,.00188-.0014,.00283-.34814,.69857-.06721,1.54717,.629,1.9l3.876,1.951v3.075c-.94189,.54595-2.01132,.83332-3.1,.833m5.9,2.3c3.23746,1.16237,6.85445,.37279,9.313-2.033v8.949h-9.312l-.001-6.916Zm12.114,6.915v-8.953c2.45854,2.40578,6.07554,3.19537,9.313,2.033v6.915l-9.313,.005Z"/><path class="b" d="M11.47708,44.8074c.007,.012,.015,.024,.022,.036,.03604,.06206,.07683,.12123,.122,.177l.037,.041c.04631,.05232,.09644,.10112,.15,.146l.039,.033c.14004,.10907,.29954,.19052,.47,.24h.033c.07573,.01984,.15301,.03322,.231,.04h.046c.025,0,.049,.006,.075,.006,.05691-.00107,.11369-.00574,.17-.014h.012c.08487-.01048,.16857-.02889,.25-.055l17.363-5.694c.73841-.24552,1.14033-1.04089,.9-1.781-.23421-.73687-1.02143-1.14436-1.7583-.91014-.00223,.00071-.00447,.00142-.00669,.00215l-14.774,4.859c7.34829-21.52326,30.75331-33.01433,52.27656-25.66604,16.8222,5.7433,28.06052,21.63245,27.87244,39.40704,0,.7732,.6268,1.4,1.4,1.4s1.4-.6268,1.4-1.4h0c.001-24.505-19.749-44.441-44.029-44.441-18.2294,.08459-34.53584,11.35509-41.058,28.378l-4.329-13.449c-.23421-.73687-1.02143-1.14436-1.7583-.91015-.00223,.00071-.00447,.00143-.0067,.00215-.73802,.24597-1.13974,1.04093-.9,1.781l5.643,17.526c.02803,.08527,.0642,.16765,.108,.246"/><path class="b" d="M101.7431,84.63834l-5.641-17.525c-.10677-.32731-.32985-.60411-.627-.778-.022-.013-.042-.03-.065-.042h0c-.04-.02-.083-.032-.124-.049-.04298-.0201-.08706-.03779-.132-.053-.28211-.08098-.58271-.06977-.858,.032l-17.32199,5.67701c-.73841,.24552-1.14034,1.04089-.9,1.781,.23421,.73687,1.02143,1.14436,1.75831,.91014,.00223-.00071,.00446-.00143,.00669-.00214l14.738-4.834c-7.53803,21.45695-31.04311,32.74047-52.50007,25.20245-16.64244-5.84665-27.71263-21.64384-27.52793-39.28244,0-.7732-.6268-1.4-1.4-1.4s-1.4,.6268-1.4,1.4c0,24.5,19.752,44.441,44.03,44.441,18.11855-.10344,34.34349-11.24192,40.951-28.11301l4.349,13.509c.23003,.73472,1.01211,1.14385,1.74683,.91383,.00607-.0019,.01213-.00385,.01817-.00583,.73841-.24552,1.14034-1.04089,.9-1.781"/></svg>